HIERARCHY
ROOT Hips
{
    OFFSET 0.000000 0.000000 0.000000
    CHANNELS 6 Xposition Yposition Zposition Zrotation Xrotation Yrotation
    JOINT Chest
    {
        OFFSET -0.000000 0.071125 0.000000
        CHANNELS 3 Zrotation Xrotation Yrotation
        JOINT Chest2
        {
            OFFSET -0.000000 0.197688 0.000000
            CHANNELS 3 Zrotation Xrotation Yrotation
            JOINT Neck
            {
                OFFSET -0.000000 0.215036 0.000000
                CHANNELS 3 Zrotation Xrotation Yrotation
                JOINT Head
                {
                    OFFSET -0.000000 0.094110 0.017348
                    CHANNELS 3 Zrotation Xrotation Yrotation
                    End Site
                    {
                        OFFSET -0.000000 0.173475 0.000000
                    }
                }
            }
            JOINT LeftCollar
            {
                OFFSET 0.034300 0.180984 -0.001327
                CHANNELS 3 Zrotation Xrotation Yrotation
                JOINT LeftShoulder
                {
                    OFFSET 0.102919 0.000000 0.000000
                    CHANNELS 3 Zrotation Xrotation Yrotation
                    JOINT LeftElbow
                    {
                        OFFSET 0.264081 0.000000 0.000000
                        CHANNELS 3 Zrotation Xrotation Yrotation
                        JOINT LeftWrist
                        {
                            OFFSET 0.224503 0.000000 0.000000
                            CHANNELS 3 Zrotation Xrotation Yrotation
                            End Site
                            {
                                OFFSET 0.000000 -0.130107 0.000000
                            }
                        }
                    }
                }
            }
            JOINT RightCollar
            {
                OFFSET -0.035072 0.180984 -0.001327
                CHANNELS 3 Zrotation Xrotation Yrotation
                JOINT RightShoulder
                {
                    OFFSET -0.102919 0.000000 0.000000
                    CHANNELS 3 Zrotation Xrotation Yrotation
                    JOINT RightElbow
                    {
                        OFFSET -0.264081 0.000000 0.000000
                        CHANNELS 3 Zrotation Xrotation Yrotation
                        JOINT RightWrist
                        {
                            OFFSET -0.224503 0.000000 0.000000
                            CHANNELS 3 Zrotation Xrotation Yrotation
                            End Site
                            {
                                OFFSET -0.000000 -0.130107 0.000000
                            }
                        }
                    }
                }
            }
        }
    }
    JOINT LeftHip
    {
        OFFSET 0.086738 0.000000 0.000000
        CHANNELS 3 Zrotation Xrotation Yrotation
        JOINT LeftKnee
        {
            OFFSET -0.000000 -0.402353 0.000000
            CHANNELS 3 Zrotation Xrotation Yrotation
            JOINT LeftAnkle
            {
                OFFSET -0.000000 -0.330417 0.000000
                CHANNELS 3 Zrotation Xrotation Yrotation
                JOINT LeftToe
                {
                    OFFSET -0.000000 -0.056379 0.130107
                    CHANNELS 3 Zrotation Xrotation Yrotation
                    End Site
                    {
                        OFFSET -0.000000 0.000000 0.034695
                    }
                }
            }
        }
    }
    JOINT RightHip
    {
        OFFSET -0.086738 0.000000 0.000000
        CHANNELS 3 Zrotation Xrotation Yrotation
        JOINT RightKnee
        {
            OFFSET -0.000000 -0.402353 0.000000
            CHANNELS 3 Zrotation Xrotation Yrotation
            JOINT RightAnkle
            {
                OFFSET -0.000000 -0.330417 0.000000
                CHANNELS 3 Zrotation Xrotation Yrotation
                JOINT RightToe
                {
                    OFFSET -0.000000 -0.056379 0.130107
                    CHANNELS 3 Zrotation Xrotation Yrotation
                    End Site
                    {
                        OFFSET -0.000000 0.000000 0.034695
                    }
                }
            }
        }
    }
}
MOTION
Frames:    14
Frame Time:    0.016667
0.068120    0.773991    -0.411413    11.916188    2.684869    90.383827    1.546624    9.624372    -3.803266    -5.669439    -5.491081    -1.493014    -6.573607    29.148420    8.530239    -2.442152    8.629636    6.745701    19.446844    -12.011638    -10.186168    -1.714591    1.275871    -44.178570    1.126110    -29.369738    -21.375639    53.785538    -13.226667    24.841522    -14.429642    -6.502197    15.978599    -6.640941    -2.765839    62.917274    -4.937132    -41.267696    24.601095    -40.939949    -10.497276    -35.652676    -3.551554    4.416032    2.753819    -9.474474    41.994068    8.300741    -0.491595    -23.174055    7.892642    0.000000    0.000000    0.000000    1.343494    -27.219538    8.308186    -14.539376    41.790924    20.311823    8.789692    22.238623    20.474531    0.000000    0.000000    0.000000    
0.077514    0.777129    -0.407907    11.555743    2.987003    92.281754    1.360716    9.227509    -4.136196    -5.377518    -5.693661    -1.606621    -6.705833    29.584650    8.318981    -2.077632    8.496418    6.374290    19.629097    -12.049164    -10.043035    -1.036841    0.694196    -43.666405    1.081133    -29.505026    -22.356434    53.930000    -13.744534    24.823839    -14.562262    -6.554283    15.666080    -6.826974    -3.146866    62.376049    -4.988473    -41.745068    25.672661    -41.358349    -11.236743    -35.800190    -2.946856    4.962157    2.148573    -9.159802    41.376999    7.290314    -1.142694    -22.150671    7.008773    0.000000    0.000000    0.000000    0.801060    -26.600197    8.527930    -15.179995    42.272125    21.123281    9.817962    21.443605    20.188065    0.000000    0.000000    0.000000    
0.089791    0.782024    -0.402736    11.075471    3.390245    94.800598    0.916584    8.746381    -4.424453    -4.892848    -6.014750    -1.705990    -6.568613    30.334103    7.834808    -2.000364    8.225925    5.864698    19.870123    -11.735557    -9.767221    0.048280    -0.016358    -43.327862    1.155244    -29.983662    -23.383806    54.144520    -14.603462    25.028090    -14.636800    -6.515872    15.281745    -7.057823    -3.571407    61.646088    -4.824356    -42.630283    27.175014    -41.604374    -12.231737    -36.253513    -2.042662    5.695138    1.727574    -8.486979    40.343155    5.072254    -1.790575    -20.489975    6.406460    0.000000    0.000000    0.000000    0.072800    -25.443869    8.502418    -15.462399    42.046421    21.975857    10.005701    20.562559    20.584667    0.000000    0.000000    0.000000    
0.099928    0.786418    -0.398521    10.414367    3.659626    97.003754    0.547261    7.946059    -4.721527    -4.421003    -6.036726    -1.794903    -6.530907    30.766853    7.502026    -1.953166    8.135544    5.500246    19.953705    -11.637638    -9.578192    1.108824    -0.448367    -42.879612    0.877661    -30.477026    -24.300127    54.120148    -15.359678    25.313637    -14.924768    -6.533348    15.028680    -7.428755    -3.776829    61.066582    -4.655335    -43.757618    28.196346    -41.887066    -13.106553    -37.036255    -1.181610    6.047805    0.941170    -8.361356    39.201832    4.623831    -2.548511    -18.904646    5.090947    0.000000    0.000000    0.000000    -0.409917    -24.488077    8.063736    -15.716126    41.111633    21.999254    10.078613    20.346880    21.358179    0.000000    0.000000    0.000000    
0.110350    0.791399    -0.393695    9.830723    3.903988    99.279297    0.301741    7.370341    -5.079867    -4.307909    -6.297782    -1.924527    -6.352524    31.412130    7.136977    -1.965191    7.796204    5.155689    19.967201    -10.677201    -9.413903    2.546656    -1.654353    -42.334526    0.520345    -30.816170    -25.330582    54.782986    -15.801215    25.671114    -14.784841    -6.335526    14.852720    -8.061014    -4.075479    60.557358    -4.340972    -44.913857    29.291697    -42.518211    -13.545389    -38.125362    -0.241743    6.421149    0.539983    -7.728858    38.142323    3.538000    -3.574448    -17.069864    3.297353    0.000000    0.000000    0.000000    -0.874088    -23.280573    8.485273    -14.747169    40.375603    21.675928    10.497929    19.283484    20.150373    0.000000    0.000000    0.000000    
0.121074    0.796639    -0.388345    9.120093    4.072211    101.659615    -0.288132    6.694669    -5.218444    -3.669642    -6.590181    -1.957219    -6.581503    31.938843    7.143083    -1.112068    7.606304    4.869056    19.974133    -10.272554    -9.344422    3.474930    -2.289956    -42.012230    0.484378    -31.043594    -26.261852    55.459358    -15.887948    25.977663    -14.986880    -6.258886    14.609113    -8.515329    -4.129855    59.880005    -4.242568    -45.770718    30.119453    -42.811680    -14.230680    -38.727848    0.764220    6.610836    0.351939    -6.924497    36.962681    2.118903    -4.304735    -14.990116    1.915100    0.000000    0.000000    0.000000    -0.984442    -22.112875    8.440928    -14.654832    39.684345    21.859138    11.015961    18.140066    18.660917    0.000000    0.000000    0.000000    
0.131813    0.802404    -0.382841    8.431933    4.146500    104.110397    -0.853544    5.973053    -5.376707    -3.042821    -6.648378    -1.984573    -5.323535    32.701756    5.178700    -2.490542    7.132923    3.582521    20.352848    -10.791959    -9.244554    3.548974    -2.350198    -41.695072    0.802859    -31.018757    -27.245975    55.957546    -15.642101    26.035309    -15.068692    -6.266087    14.354136    -9.070786    -4.310534    59.202919    -4.408378    -46.088017    30.700039    -43.691593    -14.514973    -39.008209    1.854331    6.664803    -0.241305    -6.310109    35.816822    0.342892    -4.851797    -12.660098    1.282298    0.000000    0.000000    0.000000    -1.461907    -20.954168    10.835592    -11.030273    39.787289    19.796293    11.036924    16.107916    14.751275    0.000000    0.000000    0.000000    
0.142971    0.808239    -0.377279    7.807250    4.200885    106.745804    -1.169989    5.348538    -5.690592    -2.790495    -6.885377    -2.084180    -5.853006    33.083023    5.822361    -1.115011    7.195568    3.743998    20.182945    -10.215497    -9.305491    4.982790    -3.047877    -41.014458    1.036894    -30.887188    -28.261919    56.263229    -15.672198    25.882839    -15.191015    -6.135501    14.312734    -9.023578    -4.907639    58.628551    -4.623409    -45.959114    30.882950    -43.794250    -15.286303    -38.511829    2.978406    6.830852    -0.857337    -5.768055    34.336269    -1.335880    -4.976694    -10.291627    0.729867    0.000000    0.000000    0.000000    -0.907545    -19.414326    8.951987    -13.106029    38.261265    20.056387    10.998301    15.813232    14.542680    0.000000    0.000000    0.000000    
0.156917    0.815596    -0.370322    6.930068    4.193900    110.238113    -1.711534    4.499376    -5.958521    -2.412532    -7.057640    -2.158895    -5.018916    33.672737    4.838307    -1.148424    6.832901    3.058127    20.664564    -10.733910    -9.217626    5.267419    -3.444073    -40.785999    1.558570    -30.640646    -29.064934    56.228832    -16.075222    25.382618    -15.378710    -6.243998    14.125493    -9.366302    -5.173934    57.570484    -3.522953    -46.277790    32.161076    -50.961655    -17.240528    -39.419933    4.436420    6.949120    -1.792370    -5.502094    32.020477    -2.652506    -4.551363    -7.255580    0.550516    0.000000    0.000000    0.000000    -0.941042    -17.652399    8.773892    -11.999632    36.715237    17.027433    10.970819    15.381410    13.841693    0.000000    0.000000    0.000000    
0.168203    0.821042    -0.365043    6.238792    4.186874    113.230301    -2.192519    3.903116    -6.216852    -2.026798    -7.165309    -2.225734    -4.401684    33.782215    4.043628    -1.191970    6.896276    2.506965    20.811123    -10.487926    -9.127102    6.273126    -4.082571    -40.381538    1.506455    -31.205263    -30.141495    56.615311    -16.313402    25.934542    -15.863855    -6.518271    13.756524    -9.541690    -5.022258    56.747650    -5.277194    -46.555950    31.362928    -44.473068    -16.871571    -38.405956    5.458583    7.036437    -2.355857    -4.916943    30.151936    -3.846914    -4.390847    -5.079295    -0.119870    0.000000    0.000000    0.000000    -0.950722    -16.241209    8.134325    -11.314907    35.420841    14.943540    10.813638    15.022319    12.909546    0.000000    0.000000    0.000000    
0.179424    0.826039    -0.359801    5.516461    4.039699    116.305557    -2.463560    3.217767    -6.501015    -1.972217    -7.162173    -2.315152    -3.711398    33.566448    3.335660    -0.912319    7.198396    2.029878    21.483990    -10.894686    -8.733084    6.469655    -4.407511    -40.387482    1.491406    -31.877773    -30.877127    57.050709    -16.856598    26.508291    -16.132822    -6.546541    13.259624    -9.904467    -5.268925    55.941170    -5.537992    -46.990547    31.533087    -44.953335    -17.406063    -38.649040    6.452669    6.972761    -2.437337    -4.114656    28.267309    -5.569635    -4.515623    -2.994026    0.163078    0.000000    0.000000    0.000000    -0.962818    -14.910143    7.484819    -10.290841    34.056526    12.112730    10.616917    14.662536    12.408210    0.000000    0.000000    0.000000    
0.190529    0.830576    -0.354811    4.800663    3.824947    119.503342    -2.993080    2.532933    -6.712243    -1.399644    -7.030521    -2.347041    -2.775651    32.996651    2.192283    -1.186985    7.731366    1.321548    21.905207    -11.097507    -8.456435    6.556181    -5.371873    -40.390587    1.101111    -32.400833    -31.698606    57.796383    -17.134970    27.155132    -16.673737    -7.002827    12.773374    -10.236910    -5.214243    54.842323    -5.559255    -47.463482    31.977495    -45.477467    -17.754036    -39.059448    7.282002    6.781813    -2.405374    -3.087878    26.532188    -6.747561    -4.941788    -1.232447    0.431444    0.000000    0.000000    0.000000    -1.083050    -13.671554    6.473387    -8.901673    32.746681    9.341824    10.070195    14.071094    11.670763    0.000000    0.000000    0.000000    
0.201283    0.834671    -0.350204    4.116864    3.527593    122.704247    -2.903545    1.833895    -7.215479    -1.664453    -6.998816    -2.523971    -2.519003    32.729099    1.817920    -0.795502    7.734183    0.973245    22.543919    -11.075710    -7.890534    6.655044    -6.317927    -40.157341    0.892597    -32.706211    -32.588455    58.365356    -16.948336    27.651558    -17.124035    -7.042266    12.287518    -9.816629    -6.167543    54.379353    -5.697372    -47.361057    32.084888    -45.797279    -17.614176    -39.039410    8.060235    6.592103    -2.466077    -2.525645    24.843018    -7.500356    -5.171507    -0.121854    1.405259    0.000000    0.000000    0.000000    -1.179071    -12.569519    4.710365    -7.883460    31.617363    7.272999    9.511668    13.011750    11.004578    0.000000    0.000000    0.000000    
0.211430    0.838320    -0.345901    3.521433    3.153980    125.840591    -2.994844    1.396232    -7.371366    -1.506380    -7.085368    -2.563844    -1.985947    31.928143    1.050284    -0.505979    8.334794    0.364841    23.019974    -11.256674    -7.626121    6.804515    -7.170420    -39.995728    1.054294    -32.896156    -33.158703    58.617172    -16.950123    27.837229    -17.520178    -7.515756    11.440782    -10.068039    -6.416438    53.645802    -6.589967    -46.546127    31.435133    -42.852333    -16.391617    -38.062923    8.577850    6.415717    -2.535791    -2.069982    23.185921    -7.172652    -5.258338    0.884449    3.231042    0.000000    0.000000    0.000000    -1.224544    -11.499278    2.092402    -6.708315    29.885540    5.555840    8.131547    13.054399    10.208243    0.000000    0.000000    0.000000    
